# xmcd
#
# Track frame offsets:
#	150
#	16334
#	36991
#	56678
#	74910
#	92005
#	108097
#	126689
#	147473
#	162970
#	179815
#	196807
#	214404
#	229515
#
# Disc length: 3228 seconds
#
# Revision: 3
# Processed by: cddbd v1.5.2PL0 Copyright (c) Steve Scherf et al.
# Submitted via: EasyCDDAExtractor 10.5.1.1
#
DISCID=d90c9a0e
DTITLE=LeAnn Rimes - The Best Of (Remixed)
DYEAR=2004
DGENRE=Country
TTITLE0=Can't Fight The Moonlight (Latino Mix)
TTITLE1=Soon (Graham Stack Radio Edit)
TTITLE2=I Need You (Dave Aude Radio Edit)
TTITLE3=But I Do Love You (Almighty Radio Edit)
TTITLE4=We Can (Widelife Radio Edit)
TTITLE5=Last Thing On My Mind (Metro Mix)
TTITLE6=Suddenly (Riva Radio Edit)
TTITLE7=Sittin' On Top Of The World (Aurora Borealis Radio Edit)
TTITLE8=The Right Kind Of Wrong (Graham Stack Radio Edit)
TTITLE9=You Are (Bertoldo Radio Edit)
TTITLE10=Tic Toc (Thunderpuss Radio Edit)
TTITLE11=How Do I Live (Mr. Big Dance Radio Edit)
TTITLE12=Life Goes On (Peter Amato Radio Edit)
TTITLE13=Somewhere Over The Rainbow ('a Cappella' Version)
EXTD=YEAR: 2004
EXTT0=
EXTT1=
EXTT2=
EXTT3=
EXTT4=
EXTT5=
EXTT6=
EXTT7=
EXTT8=
EXTT9=
EXTT10=
EXTT11=
EXTT12=
EXTT13=
PLAYORDER=
